<svg width="152" height="32" viewBox="0 0 152 32" fill="none" xmlns="http://www.w3.org/2000/svg">
<path d="M16.8233 10.3438V13.9566H6.17407V10.3438H8.14263V11.988H9.1467V11.108H11.1153V11.988H12.0466V11.108H14.0147V11.988H14.8548V10.3438H16.8233Z" fill="white"/>
<path d="M22.2865 19.1432C22.2906 19.3944 22.2506 19.6424 22.1677 19.88C21.5539 21.654 20.6214 23.2594 19.3964 24.6541C19.3949 24.6583 19.3923 24.6609 19.3896 24.6639C19.3455 24.7122 19.304 24.759 19.2614 24.8076C19.2241 24.8476 19.1868 24.889 19.1498 24.929L19.1457 24.9331C19.1208 24.9565 19.0959 24.9788 19.071 25.0006V24.9056L19.0737 24.1926L19.0763 22.8296L19.0846 20.3728C19.0997 19.5712 19.1106 18.8031 19.1163 18.0788H16.7891V26.8738C15.6719 27.6599 14.6042 28.1705 13.7694 28.5V14.4864H16.7891V16.1099H19.1178C19.108 14.3099 19.0597 12.9593 18.973 12.3082L18.9662 12.2475C18.9304 11.9632 18.8919 11.6679 18.7468 11.3882C18.4391 10.7909 18.0541 10.2431 17.6073 9.7631C15.5532 7.55739 12.6759 7.29798 11.5335 7.28704H11.466C10.3239 7.29798 7.44633 7.55739 5.39105 9.7631C4.94425 10.2431 4.5608 10.7909 4.25313 11.3882C4.10834 11.6683 4.06951 11.9635 4.03369 12.2475L4.02539 12.3082C3.9398 12.9593 3.89003 14.3099 3.88061 16.1099H6.14024V14.4864H9.16V28.5C8.32673 28.1705 7.25931 27.6599 6.14024 26.8749V18.0785H3.88362C3.88928 18.8028 3.90021 19.5712 3.91529 20.3724L3.92208 22.8292L3.92623 24.1923L3.92774 24.9052V25.0003C3.90285 24.978 3.87797 24.9561 3.85459 24.9328L3.84894 24.9286C3.81161 24.8887 3.77428 24.8472 3.73846 24.8072C3.69585 24.759 3.65438 24.7122 3.61027 24.6636C3.60612 24.6609 3.60461 24.6579 3.60197 24.6538C2.37695 23.2591 1.44452 21.6536 0.832195 19.8796C0.749622 19.6424 0.709277 19.394 0.713425 19.1429C0.750752 16.4624 0.786572 13.7824 0.8239 11.1035C0.829555 10.7585 0.914767 10.4139 1.07199 10.1062C1.76161 8.76129 2.67067 7.58039 3.77428 6.59705C6.53312 4.13344 9.73348 3.59954 11.4219 3.50302C11.4343 3.50151 11.4468 3.50151 11.4577 3.50151H11.4675C11.4784 3.50151 11.4898 3.5 11.5018 3.5C11.5128 3.5 11.5226 3.50151 11.532 3.50151H11.5418C11.5527 3.50151 11.564 3.50151 11.5761 3.50302C13.2645 3.59954 16.4649 4.13344 19.2252 6.59705C20.3288 7.58076 21.2364 8.76129 21.926 10.1062C22.0847 10.4139 22.1703 10.7585 22.1741 11.1035C22.2133 13.7828 22.2491 16.4632 22.2865 19.1432Z" fill="white"/>
<path d="M31.8043 23.1758C30.7086 23.1758 29.8151 22.748 29.1237 21.8926C28.4381 21.0312 28.0953 19.7686 28.0953 18.1045C28.0953 16.4229 28.444 15.1514 29.1412 14.29C29.8385 13.4229 30.7496 12.9893 31.8746 12.9893C32.3434 12.9893 32.7565 13.0537 33.1139 13.1826C33.4713 13.3115 33.7789 13.4844 34.0367 13.7012C34.3004 13.918 34.5231 14.1611 34.7047 14.4307H34.7926C34.7574 14.2432 34.7135 13.9678 34.6608 13.6045C34.6139 13.2354 34.5905 12.8574 34.5905 12.4707V9.32422H37.2799V23H35.2233L34.7047 21.7256H34.5905C34.4205 21.9951 34.2067 22.2412 33.9489 22.4639C33.6969 22.6807 33.3951 22.8535 33.0436 22.9824C32.692 23.1113 32.2789 23.1758 31.8043 23.1758ZM32.7448 21.04C33.4772 21.04 33.9928 20.8232 34.2916 20.3896C34.5963 19.9502 34.7574 19.291 34.775 18.4121V18.1221C34.775 17.167 34.6285 16.4375 34.3356 15.9336C34.0426 15.4238 33.4977 15.1689 32.7008 15.1689C32.109 15.1689 31.6461 15.4238 31.3121 15.9336C30.9781 16.4434 30.8112 17.1787 30.8112 18.1396C30.8112 19.1006 30.9781 19.8242 31.3121 20.3105C31.652 20.7969 32.1295 21.04 32.7448 21.04ZM49.0133 18.0693C49.0133 18.8896 48.902 19.6162 48.6793 20.249C48.4625 20.8818 48.1432 21.418 47.7213 21.8574C47.3053 22.291 46.8014 22.6191 46.2096 22.8418C45.6237 23.0645 44.9615 23.1758 44.2233 23.1758C43.5319 23.1758 42.8961 23.0645 42.316 22.8418C41.7418 22.6191 41.2408 22.291 40.8131 21.8574C40.3912 21.418 40.0631 20.8818 39.8287 20.249C39.6002 19.6162 39.486 18.8896 39.486 18.0693C39.486 16.9795 39.6793 16.0566 40.066 15.3008C40.4528 14.5449 41.0035 13.9707 41.7184 13.5781C42.4332 13.1855 43.2858 12.9893 44.276 12.9893C45.1959 12.9893 46.0104 13.1855 46.7194 13.5781C47.4342 13.9707 47.9938 14.5449 48.3981 15.3008C48.8082 16.0566 49.0133 16.9795 49.0133 18.0693ZM42.2194 18.0693C42.2194 18.7139 42.2897 19.2559 42.4303 19.6953C42.5709 20.1348 42.7906 20.4658 43.0895 20.6885C43.3883 20.9111 43.778 21.0225 44.2584 21.0225C44.733 21.0225 45.1168 20.9111 45.4098 20.6885C45.7086 20.4658 45.9254 20.1348 46.0602 19.6953C46.2008 19.2559 46.2711 18.7139 46.2711 18.0693C46.2711 17.4189 46.2008 16.8799 46.0602 16.4521C45.9254 16.0186 45.7086 15.6934 45.4098 15.4766C45.111 15.2598 44.7213 15.1514 44.2408 15.1514C43.5319 15.1514 43.0162 15.3945 42.694 15.8809C42.3776 16.3672 42.2194 17.0967 42.2194 18.0693ZM58.0836 20.082C58.0836 20.75 57.9254 21.3154 57.609 21.7783C57.2985 22.2354 56.8326 22.584 56.2115 22.8242C55.5905 23.0586 54.817 23.1758 53.8912 23.1758C53.2057 23.1758 52.6168 23.1318 52.1246 23.0439C51.6383 22.9561 51.1461 22.8096 50.6481 22.6045V20.3896C51.1813 20.6299 51.7526 20.8291 52.3619 20.9873C52.9772 21.1396 53.5162 21.2158 53.9791 21.2158C54.5006 21.2158 54.8727 21.1396 55.0953 20.9873C55.3239 20.8291 55.4381 20.624 55.4381 20.3721C55.4381 20.208 55.3912 20.0615 55.2975 19.9326C55.2096 19.7979 55.0162 19.6484 54.7174 19.4844C54.4186 19.3145 53.9498 19.0947 53.3112 18.8252C52.6959 18.5674 52.1891 18.3066 51.7906 18.043C51.3981 17.7793 51.1051 17.4688 50.9117 17.1113C50.7242 16.748 50.6305 16.2881 50.6305 15.7314C50.6305 14.8232 50.9821 14.1406 51.6852 13.6836C52.3942 13.2207 53.3405 12.9893 54.524 12.9893C55.1334 12.9893 55.7135 13.0508 56.2643 13.1738C56.8209 13.2969 57.3922 13.4932 57.9781 13.7627L57.1696 15.6963C56.6832 15.4854 56.2233 15.3125 55.7897 15.1777C55.3619 15.043 54.9254 14.9756 54.4801 14.9756C54.0875 14.9756 53.7916 15.0283 53.5924 15.1338C53.3932 15.2393 53.2936 15.4004 53.2936 15.6172C53.2936 15.7754 53.3434 15.916 53.443 16.0391C53.5485 16.1621 53.7477 16.2998 54.0406 16.4521C54.3395 16.5986 54.776 16.7891 55.3502 17.0234C55.9069 17.252 56.3903 17.4922 56.8004 17.7441C57.2106 17.9902 57.527 18.2979 57.7496 18.667C57.9723 19.0303 58.0836 19.502 58.0836 20.082ZM67.0309 20.082C67.0309 20.75 66.8727 21.3154 66.5563 21.7783C66.2457 22.2354 65.7799 22.584 65.1588 22.8242C64.5377 23.0586 63.7643 23.1758 62.8385 23.1758C62.153 23.1758 61.5641 23.1318 61.0719 23.0439C60.5856 22.9561 60.0934 22.8096 59.5953 22.6045V20.3896C60.1285 20.6299 60.6998 20.8291 61.3092 20.9873C61.9244 21.1396 62.4635 21.2158 62.9264 21.2158C63.4479 21.2158 63.8199 21.1396 64.0426 20.9873C64.2711 20.8291 64.3854 20.624 64.3854 20.3721C64.3854 20.208 64.3385 20.0615 64.2448 19.9326C64.1569 19.7979 63.9635 19.6484 63.6647 19.4844C63.3658 19.3145 62.8971 19.0947 62.2584 18.8252C61.6432 18.5674 61.1364 18.3066 60.7379 18.043C60.3453 17.7793 60.0524 17.4688 59.859 17.1113C59.6715 16.748 59.5778 16.2881 59.5778 15.7314C59.5778 14.8232 59.9293 14.1406 60.6324 13.6836C61.3414 13.2207 62.2877 12.9893 63.4713 12.9893C64.0807 12.9893 64.6608 13.0508 65.2115 13.1738C65.7682 13.2969 66.3395 13.4932 66.9254 13.7627L66.1168 15.6963C65.6305 15.4854 65.1705 15.3125 64.7369 15.1777C64.3092 15.043 63.8727 14.9756 63.4274 14.9756C63.0348 14.9756 62.7389 15.0283 62.5397 15.1338C62.3405 15.2393 62.2408 15.4004 62.2408 15.6172C62.2408 15.7754 62.2906 15.916 62.3903 16.0391C62.4957 16.1621 62.6949 16.2998 62.9879 16.4521C63.2867 16.5986 63.7233 16.7891 64.2975 17.0234C64.8541 17.252 65.3375 17.4922 65.7477 17.7441C66.1578 17.9902 66.4742 18.2979 66.6969 18.667C66.9196 19.0303 67.0309 19.502 67.0309 20.082ZM71.8033 13.1738V23H69.1227V13.1738H71.8033ZM70.4674 9.32422C70.8658 9.32422 71.2086 9.41797 71.4957 9.60547C71.7828 9.78711 71.9264 10.1299 71.9264 10.6338C71.9264 11.1318 71.7828 11.4775 71.4957 11.6709C71.2086 11.8584 70.8658 11.9521 70.4674 11.9521C70.0631 11.9521 69.7174 11.8584 69.4303 11.6709C69.149 11.4775 69.0084 11.1318 69.0084 10.6338C69.0084 10.1299 69.149 9.78711 69.4303 9.60547C69.7174 9.41797 70.0631 9.32422 70.4674 9.32422ZM78.6764 12.9893C79.5846 12.9893 80.3668 13.165 81.0231 13.5166C81.6793 13.8623 82.1862 14.3662 82.5436 15.0283C82.901 15.6904 83.0797 16.499 83.0797 17.4541V18.7549H76.7428C76.7721 19.5107 76.9977 20.1055 77.4196 20.5391C77.8473 20.9668 78.4391 21.1807 79.1949 21.1807C79.8219 21.1807 80.3961 21.1162 80.9176 20.9873C81.4391 20.8584 81.9752 20.665 82.526 20.4072V22.4814C82.0397 22.7217 81.5299 22.8975 80.9967 23.0088C80.4694 23.1201 79.8278 23.1758 79.0719 23.1758C78.0875 23.1758 77.2145 22.9941 76.4528 22.6309C75.6969 22.2676 75.1022 21.7139 74.6686 20.9697C74.2408 20.2256 74.027 19.2881 74.027 18.1572C74.027 17.0088 74.2203 16.0537 74.6071 15.292C74.9996 14.5244 75.5446 13.9502 76.2418 13.5693C76.9391 13.1826 77.7506 12.9893 78.6764 12.9893ZM78.694 14.8965C78.1725 14.8965 77.7389 15.0635 77.3932 15.3975C77.0533 15.7314 76.8571 16.2559 76.8043 16.9707H80.566C80.5602 16.5723 80.4869 16.2178 80.3463 15.9072C80.2115 15.5967 80.0065 15.3506 79.7311 15.1689C79.4615 14.9873 79.1158 14.8965 78.694 14.8965ZM90.7438 12.9893C90.8785 12.9893 91.0338 12.998 91.2096 13.0156C91.3912 13.0273 91.5377 13.0449 91.649 13.0684L91.4469 15.582C91.359 15.5527 91.233 15.5322 91.069 15.5205C90.9108 15.5029 90.7731 15.4941 90.6559 15.4941C90.3102 15.4941 89.9733 15.5381 89.6451 15.626C89.3229 15.7139 89.0328 15.8574 88.775 16.0566C88.5172 16.25 88.3121 16.5078 88.1598 16.8301C88.0133 17.1465 87.9401 17.5361 87.9401 17.999V23H85.2594V13.1738H87.2897L87.6852 14.8262H87.817C88.0104 14.4922 88.2506 14.1875 88.5377 13.9121C88.8307 13.6309 89.1617 13.4082 89.5309 13.2441C89.9059 13.0742 90.3102 12.9893 90.7438 12.9893ZM93.0553 21.7432C93.0553 21.1924 93.2047 20.8057 93.5035 20.583C93.8082 20.3604 94.1744 20.249 94.6022 20.249C95.0182 20.249 95.3756 20.3604 95.6744 20.583C95.9791 20.8057 96.1315 21.1924 96.1315 21.7432C96.1315 22.2705 95.9791 22.6514 95.6744 22.8857C95.3756 23.1201 95.0182 23.2373 94.6022 23.2373C94.1744 23.2373 93.8082 23.1201 93.5035 22.8857C93.2047 22.6514 93.0553 22.2705 93.0553 21.7432ZM104.147 12.9893C105.196 12.9893 106.04 13.2764 106.678 13.8506C107.317 14.4189 107.636 15.333 107.636 16.5928V23H104.956V17.2607C104.956 16.5576 104.827 16.0273 104.569 15.6699C104.317 15.3125 103.919 15.1338 103.374 15.1338C102.553 15.1338 101.994 15.4121 101.695 15.9688C101.396 16.5254 101.247 17.3281 101.247 18.377V23H98.566V13.1738H100.614L100.974 14.4307H101.124C101.335 14.0908 101.595 13.8154 101.906 13.6045C102.222 13.3936 102.571 13.2383 102.952 13.1387C103.339 13.0391 103.737 12.9893 104.147 12.9893ZM114.448 12.9893C115.356 12.9893 116.138 13.165 116.795 13.5166C117.451 13.8623 117.958 14.3662 118.315 15.0283C118.672 15.6904 118.851 16.499 118.851 17.4541V18.7549H112.514C112.544 19.5107 112.769 20.1055 113.191 20.5391C113.619 20.9668 114.211 21.1807 114.966 21.1807C115.593 21.1807 116.168 21.1162 116.689 20.9873C117.211 20.8584 117.747 20.665 118.297 20.4072V22.4814C117.811 22.7217 117.301 22.8975 116.768 23.0088C116.241 23.1201 115.599 23.1758 114.843 23.1758C113.859 23.1758 112.986 22.9941 112.224 22.6309C111.468 22.2676 110.874 21.7139 110.44 20.9697C110.012 20.2256 109.798 19.2881 109.798 18.1572C109.798 17.0088 109.992 16.0537 110.379 15.292C110.771 14.5244 111.316 13.9502 112.013 13.5693C112.711 13.1826 113.522 12.9893 114.448 12.9893ZM114.465 14.8965C113.944 14.8965 113.51 15.0635 113.165 15.3975C112.825 15.7314 112.629 16.2559 112.576 16.9707H116.338C116.332 16.5723 116.258 16.2178 116.118 15.9072C115.983 15.5967 115.778 15.3506 115.503 15.1689C115.233 14.9873 114.887 14.8965 114.465 14.8965ZM123.044 17.9814L119.88 13.1738H122.921L124.828 16.3027L126.753 13.1738H129.794L126.594 17.9814L129.943 23H126.893L124.828 19.6338L122.754 23H119.713L123.044 17.9814ZM140.455 13.1738V23H138.398L138.038 21.7432H137.897C137.686 22.0771 137.422 22.3496 137.106 22.5605C136.79 22.7715 136.441 22.9268 136.06 23.0264C135.679 23.126 135.284 23.1758 134.874 23.1758C134.171 23.1758 133.558 23.0527 133.037 22.8066C132.515 22.5547 132.108 22.165 131.815 21.6377C131.528 21.1104 131.384 20.4248 131.384 19.5811V13.1738H134.065V18.9131C134.065 19.6162 134.191 20.1465 134.443 20.5039C134.695 20.8613 135.096 21.04 135.647 21.04C136.192 21.04 136.62 20.917 136.93 20.6709C137.241 20.4189 137.458 20.0527 137.581 19.5723C137.71 19.0859 137.774 18.4941 137.774 17.7969V13.1738H140.455ZM150.123 20.082C150.123 20.75 149.964 21.3154 149.648 21.7783C149.338 22.2354 148.872 22.584 148.251 22.8242C147.63 23.0586 146.856 23.1758 145.93 23.1758C145.245 23.1758 144.656 23.1318 144.164 23.0439C143.677 22.9561 143.185 22.8096 142.687 22.6045V20.3896C143.22 20.6299 143.792 20.8291 144.401 20.9873C145.016 21.1396 145.555 21.2158 146.018 21.2158C146.54 21.2158 146.912 21.1396 147.134 20.9873C147.363 20.8291 147.477 20.624 147.477 20.3721C147.477 20.208 147.43 20.0615 147.337 19.9326C147.249 19.7979 147.055 19.6484 146.756 19.4844C146.458 19.3145 145.989 19.0947 145.35 18.8252C144.735 18.5674 144.228 18.3066 143.83 18.043C143.437 17.7793 143.144 17.4688 142.951 17.1113C142.763 16.748 142.67 16.2881 142.67 15.7314C142.67 14.8232 143.021 14.1406 143.724 13.6836C144.433 13.2207 145.38 12.9893 146.563 12.9893C147.172 12.9893 147.753 13.0508 148.303 13.1738C148.86 13.2969 149.431 13.4932 150.017 13.7627L149.209 15.6963C148.722 15.4854 148.262 15.3125 147.829 15.1777C147.401 15.043 146.964 14.9756 146.519 14.9756C146.127 14.9756 145.831 15.0283 145.631 15.1338C145.432 15.2393 145.333 15.4004 145.333 15.6172C145.333 15.7754 145.382 15.916 145.482 16.0391C145.588 16.1621 145.787 16.2998 146.08 16.4521C146.379 16.5986 146.815 16.7891 147.389 17.0234C147.946 17.252 148.429 17.4922 148.839 17.7441C149.25 17.9902 149.566 18.2979 149.789 18.667C150.011 19.0303 150.123 19.502 150.123 20.082Z" fill="white"/>
</svg>
